# xmcd CD database file generated by OrangeCD 5.0
#
# Track frame offsets:
#	182
#	20292
#	35702
#	58035
#
# Disc length: 1064 seconds
#
# Revision: 2
# Processed by: cddbd v1.4PL0 Copyright (c) Steve Scherf et al.
# Submitted via: OrangeCD 5.0
#
DISCID=2d042604
DTITLE=Janet Jackson - Twenty Foreplay
DYEAR=1995
DGENRE=Blues
TTITLE0=Twenty Foreplay (Slow Jam International Edit)
TTITLE1=Runaway (Jam and Lewis Street Mix Edit)
TTITLE2=Runaway (Jam and Lewis Ghetto Mix)
TTITLE3=Twenty Foreplay (Slow Jam Video Edit)
EXTD=
EXTT0=
EXTT1=
EXTT2=
EXTT3=
PLAYORDER=
